<svg width="18" height="14" viewBox="0 0 18 14" fill="none" xmlns="http://www.w3.org/2000/svg">
<path d="M17.3349 7.71816C17.5221 7.53095 17.6272 7.27707 17.6272 7.01235C17.6272 6.74763 17.5221 6.49375 17.3349 6.30653L11.6874 0.659024C11.5953 0.563674 11.4851 0.48762 11.3633 0.435299C11.2415 0.382978 11.1105 0.355438 10.978 0.354286C10.8454 0.353134 10.714 0.378393 10.5913 0.42859C10.4686 0.478786 10.3571 0.552915 10.2634 0.64665C10.1697 0.740385 10.0955 0.85185 10.0453 0.97454C9.99514 1.09723 9.96988 1.22869 9.97103 1.36125C9.97218 1.4938 9.99972 1.6248 10.052 1.7466C10.1044 1.8684 10.1804 1.97856 10.2758 2.07065L14.2191 6.01402H0.99836C0.733589 6.01402 0.47966 6.1192 0.292439 6.30643C0.105217 6.49365 3.8147e-05 6.74757 3.8147e-05 7.01235C3.8147e-05 7.27712 0.105217 7.53104 0.292439 7.71827C0.47966 7.90549 0.733589 8.01067 0.99836 8.01067H14.2191L10.2758 11.954C10.0939 12.1423 9.99329 12.3945 9.99556 12.6563C9.99784 12.918 10.1028 13.1684 10.2879 13.3535C10.473 13.5386 10.7234 13.6436 10.9852 13.6459C11.2469 13.6481 11.4991 13.5475 11.6874 13.3657L17.3349 7.71816Z" fill="black"/>
</svg>
