<svg width="19" height="14" viewBox="0 0 19 14" fill="none" xmlns="http://www.w3.org/2000/svg">
<path d="M17.9053 7.71804C18.0925 7.53082 18.1976 7.27694 18.1976 7.01222C18.1976 6.7475 18.0925 6.49362 17.9053 6.30641L12.2578 0.658902C12.1657 0.563552 12.0556 0.487498 11.9338 0.435177C11.812 0.382856 11.681 0.355316 11.5484 0.354164C11.4159 0.353012 11.2844 0.378271 11.1617 0.428468C11.039 0.478664 10.9276 0.552793 10.8338 0.646528C10.7401 0.740263 10.666 0.851727 10.6158 0.974418C10.5656 1.09711 10.5403 1.22857 10.5415 1.36112C10.5426 1.49368 10.5702 1.62468 10.6225 1.74648C10.6748 1.86828 10.7509 1.97844 10.8462 2.07053L14.7896 6.0139H1.56879C1.30402 6.0139 1.05009 6.11908 0.862873 6.3063C0.675652 6.49353 0.570473 6.74745 0.570473 7.01222C0.570473 7.277 0.675652 7.53092 0.862873 7.71814C1.05009 7.90537 1.30402 8.01055 1.56879 8.01055H14.7896L10.8462 11.9539C10.6643 12.1422 10.5637 12.3944 10.566 12.6561C10.5683 12.9179 10.6733 13.1683 10.8584 13.3534C11.0435 13.5385 11.2939 13.6435 11.5556 13.6458C11.8174 13.648 12.0695 13.5474 12.2578 13.3655L17.9053 7.71804Z" fill="white"/>
</svg>
