<svg width="58" height="72" viewBox="0 0 58 72" fill="none" xmlns="http://www.w3.org/2000/svg">
<path fill-rule="evenodd" clip-rule="evenodd" d="M47.0304 0.0639648C49.857 0.0639648 52.5678 1.18682 54.5665 3.18552C56.5652 5.18422 57.6881 7.89503 57.6881 10.7216V67.5625C57.6877 68.2316 57.4983 68.887 57.1418 69.4532C56.7853 70.0194 56.2761 70.4734 55.6728 70.763C55.0696 71.0525 54.3969 71.1658 53.7321 71.0899C53.0673 71.0139 52.4375 70.7517 51.9152 70.3335L45.2542 65.0047L38.5931 70.3335C37.9107 70.8802 37.0506 71.156 36.1775 71.1082C35.3045 71.0603 34.4797 70.6921 33.8611 70.0742L29.2677 65.4807L24.6742 70.0742C24.0561 70.6927 23.2315 71.0615 22.3584 71.11C21.4853 71.1585 20.625 70.8833 19.9422 70.337L13.2812 65.0047L6.62007 70.3335C6.09777 70.7517 5.46797 71.0139 4.80317 71.0899C4.13837 71.1658 3.46567 71.0525 2.86247 70.763C2.25917 70.4734 1.75007 70.0194 1.39347 69.4532C1.03697 68.887 0.847568 68.2316 0.847168 67.5625V10.7216C0.847168 7.89503 1.97007 5.18422 3.96877 3.18552C5.96747 1.18682 8.67827 0.0639648 11.5049 0.0639648H47.0304ZM29.2677 35.5895H18.61C17.6678 35.5895 16.7642 35.9638 16.098 36.63C15.4317 37.2963 15.0574 38.1999 15.0574 39.1421C15.0574 40.0842 15.4317 40.9879 16.098 41.6541C16.7642 42.3203 17.6678 42.6946 18.61 42.6946H29.2677C30.2098 42.6946 31.1135 42.3203 31.7797 41.6541C32.4459 40.9879 32.8202 40.0842 32.8202 39.1421C32.8202 38.1999 32.4459 37.2963 31.7797 36.63C31.1135 35.9638 30.2098 35.5895 29.2677 35.5895ZM39.9253 21.3793H18.61C17.7045 21.3803 16.8336 21.727 16.1752 22.3486C15.5168 22.9702 15.1205 23.8197 15.0675 24.7236C15.0144 25.6276 15.3085 26.5176 15.8897 27.212C16.4708 27.9063 17.2952 28.3526 18.1943 28.4595L18.61 28.4844H39.9253C40.8308 28.4834 41.7017 28.1367 42.3601 27.5151C43.0185 26.8935 43.4148 26.0439 43.4678 25.14C43.5209 24.2361 43.2268 23.346 42.6456 22.6517C42.0645 21.9573 41.2401 21.5111 40.341 21.4041L39.9253 21.3793Z" fill="black"/>
</svg>
