<svg width="71" height="70" viewBox="0 0 71 70" fill="none" xmlns="http://www.w3.org/2000/svg">
<path d="M63.2025 25.0862C66.788 21.5008 65.153 17.3129 63.2025 15.2764L54.5974 6.67121C50.9832 3.08574 46.8241 4.72072 44.7875 6.67121L39.9113 11.5762H32.4822C27.0323 11.5762 23.8771 14.4445 22.2708 17.7432L9.53515 30.4788V41.9523L7.4986 43.9602C3.91313 47.5743 5.54811 51.7335 7.4986 53.77L16.1037 62.3751C17.6527 63.9241 19.3163 64.4977 20.8939 64.4977C22.9305 64.4977 24.7949 63.4938 25.9136 62.3751L33.6582 54.6018H43.9557C48.8319 54.6018 51.2988 51.5614 52.1879 48.5782C55.4292 47.7177 57.2076 45.2509 57.9247 42.8415C62.3707 41.6941 64.0343 37.4776 64.0343 34.5232V25.9181H62.342L63.2025 25.0862ZM58.2976 34.5232C58.2976 35.814 57.7526 37.3916 55.4292 37.3916H52.5608V40.26C52.5608 41.5507 52.0158 43.1283 49.6925 43.1283H46.8241V45.9967C46.8241 47.2875 46.2791 48.8651 43.9557 48.8651H31.3062L21.8979 58.2734C21.0087 59.1052 20.4924 58.6176 20.1768 58.3021L11.6004 49.7543C10.7686 48.8651 11.2562 48.3488 11.5717 48.0333L15.2719 44.3044V32.8309L21.0087 27.0941V31.6548C21.0087 35.1256 23.3034 40.26 29.6138 40.26C35.9242 40.26 38.2189 35.1256 38.2189 31.6548H58.2976V34.5232ZM59.1294 21.0131L54.2532 25.9181H32.4822V31.6548C32.4822 32.9456 31.9372 34.5232 29.6138 34.5232C27.2904 34.5232 26.7454 32.9456 26.7454 31.6548V23.0497C26.7454 21.7302 27.2331 17.3129 32.4822 17.3129H42.2634L48.8033 10.773C49.6925 9.94116 50.2088 10.4288 50.5243 10.7443L59.1007 19.2921C59.9326 20.1813 59.4449 20.6976 59.1294 21.0131Z" fill="black"/>
</svg>
