<svg width="86" height="65" viewBox="0 0 86 65" fill="none" xmlns="http://www.w3.org/2000/svg">
<path d="M21.9972 6.62695C18.7663 6.62695 15.9909 8.78458 15.3554 11.7852L9.93173 37.476C9.09488 41.4501 12.294 45.1632 16.5736 45.1632H39.5604V51.5859H32.7809C30.9059 51.5859 29.3911 53.021 29.3911 54.7973C29.3911 56.5736 30.9059 58.0086 32.7809 58.0086H53.1195C54.9944 58.0086 56.5092 56.5736 56.5092 54.7973C56.5092 53.021 54.9944 51.5859 53.1195 51.5859H46.3399V45.1632H69.3268C73.6063 45.1632 76.816 41.4601 75.9792 37.476L70.5556 11.7852C69.9094 8.78458 67.134 6.62695 63.9031 6.62695H21.9972ZM36.6897 13.0497H49.2106L50.3123 23.4866H35.588L36.6897 13.0497ZM30.4822 23.4866H19.8044L21.9972 13.0497H31.5733L30.4822 23.4866ZM18.7769 28.3036H29.9631L28.872 38.7405H16.5736L18.7769 28.3036ZM35.0795 28.3036H50.8208L51.9224 38.7405H33.9779L35.0795 28.3036ZM55.9266 28.3036H67.1128L69.3268 38.7405H57.0389L55.9266 28.3036ZM66.0959 23.4866H55.4181L54.3165 13.0497H63.8926L67.2188 12.4174L63.9031 13.0497L66.1065 23.4866H66.0959Z" fill="black"/>
</svg>
