<svg width="70" height="69" viewBox="0 0 70 69" fill="none" xmlns="http://www.w3.org/2000/svg">
<path d="M62.5272 25.1477C66.1127 21.5623 64.4777 17.3744 62.5272 15.3379L53.9221 6.73274C50.3079 3.14726 46.1488 4.78224 44.1122 6.73274L39.236 11.6377H31.8069C26.357 11.6377 23.2018 14.506 21.5955 17.8047L8.85986 30.5403V42.0138L6.82331 44.0217C3.23784 47.6358 4.87282 51.795 6.82331 53.8315L15.4284 62.4366C16.9774 63.9856 18.641 64.5592 20.2186 64.5592C22.2552 64.5592 24.1196 63.5553 25.2383 62.4366L32.9829 54.6633H43.2804C48.1566 54.6633 50.6235 51.6229 51.5126 48.6397C54.7539 47.7792 56.5323 45.3124 57.2494 42.903C61.6954 41.7556 63.359 37.5391 63.359 34.5847V25.9796H61.6667L62.5272 25.1477ZM57.6223 34.5847C57.6223 35.8755 57.0773 37.4531 54.7539 37.4531H51.8855V40.3214C51.8855 41.6122 51.3405 43.1898 49.0172 43.1898H46.1488V46.0582C46.1488 47.349 45.6038 48.9266 43.2804 48.9266H30.6309L21.2226 58.3349C20.3334 59.1667 19.8171 58.6791 19.5015 58.3635L10.9251 49.8158C10.0933 48.9266 10.5809 48.4103 10.8964 48.0947L14.5966 44.3659V32.8923L20.3334 27.1556V31.7163C20.3334 35.187 22.6281 40.3214 28.9385 40.3214C35.2489 40.3214 37.5436 35.187 37.5436 31.7163H57.6223V34.5847ZM58.4541 21.0746L53.5779 25.9796H31.8069V31.7163C31.8069 33.0071 31.2619 34.5847 28.9385 34.5847C26.6151 34.5847 26.0701 33.0071 26.0701 31.7163V23.1112C26.0701 21.7917 26.5578 17.3744 31.8069 17.3744H41.5881L48.128 10.8345C49.0172 10.0027 49.5335 10.4903 49.849 10.8058L58.4254 19.3536C59.2573 20.2428 58.7696 20.7591 58.4541 21.0746Z" fill="black"/>
</svg>
