<svg width="80" height="81" viewBox="0 0 80 81" fill="none" xmlns="http://www.w3.org/2000/svg">
<path fill-rule="evenodd" clip-rule="evenodd" d="M56.6667 7.1212C59.3189 7.1212 61.8624 8.17477 63.7378 10.0501C65.6131 11.9255 66.6667 14.469 66.6667 17.1212V70.4545C66.6663 71.0824 66.4886 71.6973 66.1541 72.2286C65.8196 72.7598 65.3418 73.1858 64.7758 73.4575C64.2098 73.7292 63.5786 73.8355 62.9548 73.7642C62.3311 73.6929 61.7401 73.4469 61.25 73.0545L55 68.0545L48.75 73.0545C48.1097 73.5675 47.3027 73.8263 46.4835 73.7814C45.6643 73.7365 44.8905 73.3911 44.31 72.8112L40 68.5012L35.69 72.8112C35.1101 73.3915 34.3364 73.7376 33.5172 73.7831C32.698 73.8286 31.8907 73.5704 31.25 73.0579L25 68.0545L18.75 73.0545C18.2599 73.4469 17.669 73.6929 17.0452 73.7642C16.4215 73.8355 15.7903 73.7292 15.2243 73.4575C14.6583 73.1858 14.1805 72.7598 13.846 72.2286C13.5115 71.6973 13.3338 71.0824 13.3334 70.4545V17.1212C13.3334 14.469 14.3869 11.9255 16.2623 10.0501C18.1377 8.17477 20.6812 7.1212 23.3334 7.1212H56.6667ZM40 40.4545H30C29.116 40.4545 28.2681 40.8057 27.643 41.4308C27.0179 42.056 26.6667 42.9038 26.6667 43.7879C26.6667 44.6719 27.0179 45.5198 27.643 46.1449C28.2681 46.77 29.116 47.1212 30 47.1212H40C40.8841 47.1212 41.7319 46.77 42.3571 46.1449C42.9822 45.5198 43.3334 44.6719 43.3334 43.7879C43.3334 42.9038 42.9822 42.056 42.3571 41.4308C41.7319 40.8057 40.8841 40.4545 40 40.4545ZM50 27.1212H30C29.1504 27.1221 28.3333 27.4475 27.7155 28.0307C27.0977 28.6139 26.7259 29.411 26.6761 30.2592C26.6263 31.1073 26.9023 31.9425 27.4476 32.594C27.9929 33.2455 28.7664 33.6642 29.61 33.7645L30 33.7879H50C50.8496 33.7869 51.6668 33.4616 52.2846 32.8784C52.9024 32.2951 53.2742 31.498 53.3239 30.6499C53.3737 29.8017 53.0978 28.9666 52.5525 28.3151C52.0072 27.6636 51.2337 27.2449 50.39 27.1445L50 27.1212Z" fill="black"/>
</svg>
