<svg width="67" height="52" viewBox="0 0 67 52" fill="none" xmlns="http://www.w3.org/2000/svg">
<path d="M12.3156 0.626465C9.08466 0.626465 6.30926 2.7841 5.67376 5.7847L0.250091 31.4756C-0.586759 35.4496 2.61236 39.1627 6.89196 39.1627H29.8788V45.5855H23.0993C21.2243 45.5855 19.7095 47.0205 19.7095 48.7968C19.7095 50.5731 21.2243 52.0082 23.0993 52.0082H43.4379C45.3128 52.0082 46.8276 50.5731 46.8276 48.7968C46.8276 47.0205 45.3128 45.5855 43.4379 45.5855H36.6583V39.1627H59.6452C63.9247 39.1627 67.1344 35.4596 66.2976 31.4756L60.874 5.7847C60.2278 2.7841 57.4524 0.626465 54.2215 0.626465H12.3156ZM27.0081 7.04919H39.529L40.6307 17.4861H25.9064L27.0081 7.04919ZM20.8006 17.4861H10.1228L12.3156 7.04919H21.8917L20.8006 17.4861ZM9.09526 22.3031H20.2815L19.1904 32.74H6.89196L9.09526 22.3031ZM25.3979 22.3031H41.1392L42.2408 32.74H24.2963L25.3979 22.3031ZM46.245 22.3031H57.4312L59.6452 32.74H47.3573L46.245 22.3031ZM56.4143 17.4861H45.7365L44.6349 7.04919H54.211L57.5372 6.41689L54.2215 7.04919L56.4249 17.4861H56.4143Z" fill="black"/>
</svg>
